<?xml version="1.0" encoding="utf-8"?>
<svg viewBox="0 0 38 38" width="240px" height="240px" xmlns="http://www.w3.org/2000/svg" xmlns:bx="https://boxy-svg.com">
  <path fill="#1565c0" d="M 3 23 L 1 23 C 1 19 2.4 15.6 5.2 13 C 12.9 5.8 28.4 6.9 29.1 7 L 29 9 C 28.8 9 13.7 8 6.6 14.5 C 4.2 16.7 3 19.6 3 23 Z" bx:origin="0.676157 0.751821"/>
  <path fill="#1565c0" d="M 11.5 33 C 5.7 33 1 28.3 1 22.5 C 1 16.7 5.7 12 11.5 12 C 17.3 12 22 16.7 22 22.5 C 22 28.3 17.3 33 11.5 33 Z M 11.5 14 C 6.8 14 3 17.8 3 22.5 C 3 27.2 6.8 31 11.5 31 C 16.2 31 20 27.2 20 22.5 C 20 17.8 16.2 14 11.5 14 Z" bx:origin="0.904762 0.333333"/>
  <path fill="#1565c0" d="M 15.189 33 C 9.389 33 4.689 28.3 4.689 22.5 C 4.689 16.7 9.389 12 15.189 12 C 20.989 12 25.689 16.7 25.689 22.5 C 25.689 28.3 20.989 33 15.189 33 Z M 15.189 14 C 10.489 14 6.689 17.8 6.689 22.5 C 6.689 27.2 10.489 31 15.189 31 C 19.889 31 23.689 27.2 23.689 22.5 C 23.689 17.8 19.889 14 15.189 14 Z" bx:origin="0.714286 0.333333"/>
  <path fill="#1565c0" d="M 35 30.9 C 32.1 32.6 26.4 35 17 35 C 3.2 35 3 23.5 3 23 L 2 23 L 1 23 C 1 23.1 1.2 37 17 37 C 25.9 37 31.6 35 35 33.2 C 35.7 32.9 36.4 32.4 37 31.9 L 37 29.2 C 36.4 29.8 35.8 30.4 35 30.9 Z M 37 5 L 30 1 L 29 2.7 L 33 5 L 37 5 Z" bx:origin="0.527778 0.5"/>
  <path fill="#2196f3" d="M 28 5 L 37 5 L 37 11 L 28 11 L 28 5 Z M 5 23.4 C 5 23.1 5 22.8 5 22.5 C 5 22.2 5 21.9 5 21.6 C 5.4 16.5 9.4 12.5 14.5 12 C 14.2 12 13.8 11.9 13.5 11.9 C 7.7 12 3 16.7 3 22.5 C 3 28.3 7.7 33 13.5 33 C 13.8 33 14.2 33 14.5 32.9 C 9.5 32.5 5.5 28.4 5 23.4 Z M 15.5 14 C 15.2 14 14.8 14 14.5 14.1 C 18.7 14.6 22 18.2 22 22.5 C 22 26.8 18.7 30.4 14.5 30.9 C 14.8 30.9 15.2 31 15.5 31 C 19.9 31 23.5 27.6 24 23.4 C 24 23.1 24 22.8 24 22.5 C 24 22.2 24 21.9 24 21.6 C 23.5 17.4 19.9 14 15.5 14 Z" bx:origin="0.5 0.5"/>
</svg>